<svg width="107" height="102" viewBox="0 0 107 102" fill="none" xmlns="http://www.w3.org/2000/svg">
<path d="M92.6288 14.7485L65.5527 30.9942L66.0442 1.0082L66.0526 0.5H65.5443H41.7468H41.2427L41.2468 1.0041L41.4927 30.9986L14.4091 14.7485L13.9757 14.4884L13.7204 14.9246L1.56849 35.6841L1.30915 36.1272L1.75889 36.3747L28.5514 51.1229L1.76199 65.6236L1.30731 65.8697L1.56849 66.3159L13.7204 87.0754L13.9757 87.5116L14.4091 87.2515L41.4927 71.0014L41.2468 100.996L41.2427 101.5H41.7468H65.5443H66.0526L66.0442 100.992L65.5527 71.252L92.6317 87.2532L93.06 87.5064L93.3153 87.0793L105.72 66.3198L105.988 65.8719L105.529 65.6236L78.7397 51.1229L105.532 36.3747L105.986 36.1249L105.72 35.6802L93.3153 14.9207L93.0583 14.4908L92.6288 14.7485Z" stroke="#7562E0" stroke-opacity="0.17"/>
</svg>
